<svg xmlns="http://www.w3.org/2000/svg" viewBox="0 0 1440 320"><path fill="#f1fef4" fill-opacity="1" d="M0,64L17.1,85.3C34.3,107,69,149,103,176C137.1,203,171,213,206,208C240,203,274,181,309,154.7C342.9,128,377,96,411,69.3C445.7,43,480,21,514,53.3C548.6,85,583,171,617,176C651.4,181,686,107,720,90.7C754.3,75,789,117,823,154.7C857.1,192,891,224,926,202.7C960,181,994,107,1029,90.7C1062.9,75,1097,117,1131,138.7C1165.7,160,1200,160,1234,138.7C1268.6,117,1303,75,1337,69.3C1371.4,64,1406,96,1423,112L1440,128L1440,320L1422.9,320C1405.7,320,1371,320,1337,320C1302.9,320,1269,320,1234,320C1200,320,1166,320,1131,320C1097.1,320,1063,320,1029,320C994.3,320,960,320,926,320C891.4,320,857,320,823,320C788.6,320,754,320,720,320C685.7,320,651,320,617,320C582.9,320,549,320,514,320C480,320,446,320,411,320C377.1,320,343,320,309,320C274.3,320,240,320,206,320C171.4,320,137,320,103,320C68.6,320,34,320,17,320L0,320Z"></path></svg>